<?xml version="1.0" encoding="UTF-8"?>
<svg id="Camada_2" data-name="Camada 2" xmlns="http://www.w3.org/2000/svg" viewBox="0 0 414.97 414.97">
  <defs>
    <style>
      .cls-1 {
        fill: #27316a;
      }

      .cls-2 {
        fill: #aadcf1;
      }
    </style>
  </defs>
  <g id="Camada_1-2" data-name="Camada 1">
    <rect class="cls-1" width="414.97" height="414.97" rx="35.48" ry="35.48"/>
    <g>
      <path class="cls-2" d="M197.08,231.83h-88.21c-9.09,0-16.46-7.37-16.46-16.46v-37.63c0-2.98-2.42-5.4-5.4-5.4h0c-2.98,0-5.4,2.42-5.4,5.4v40.32c0,13.57,11,24.56,24.56,24.56h90.9c2.98,0,5.4-2.42,5.4-5.4h0c0-2.98-2.42-5.4-5.4-5.4Z"/>
      <path class="cls-2" d="M327.96,172.35c-1.49,0-2.84.61-3.82,1.58-.97.98-1.58,2.33-1.58,3.82v45.85c0,4.55-3.69,8.24-8.24,8.24-.92,0-1.82-.16-2.67-.47-.85-.31-1.64-.76-2.35-1.34l-35.24-29.2v-.03l-30.49-25.26c-2.49-2.06-5.62-3.19-8.85-3.19h-4.52c-9.02,0-16.34,7.31-16.34,16.33v48.55c0,2.98,2.42,5.4,5.4,5.4,1.49,0,2.84-.61,3.82-1.58.97-.98,1.58-2.33,1.58-3.82v-45.85c0-4.55,3.69-8.24,8.24-8.24.92,0,1.82.16,2.67.47.85.31,1.64.76,2.35,1.34l35.24,29.2v.03l30.49,25.26c2.49,2.06,5.62,3.19,8.85,3.19h4.52c9.02,0,16.34-7.31,16.34-16.33v-48.55c0-2.98-2.42-5.4-5.4-5.4Z"/>
    </g>
  </g>
</svg>