<?xml version="1.0" encoding="UTF-8"?>
<svg id="Camada_2" data-name="Camada 2" xmlns="http://www.w3.org/2000/svg" viewBox="0 0 2310.17 240.16">
  <defs>
    <style>
      .cls-1 {
        fill: #27316a;
      }
    </style>
  </defs>
  <g id="Camada_1-2" data-name="Camada 1">
    <path class="cls-1" d="M36.9,147.03V18.45c0-10.19-8.26-18.45-18.45-18.45h0C8.26,0,0,8.26,0,18.45v87.67s0,50.11,0,50.11C0,202.58,37.58,240.16,83.94,240.16h310.6c10.19,0,18.45-8.26,18.45-18.45h0c0-10.19-8.26-18.45-18.45-18.45H93.13c-31.06,0-56.23-25.18-56.23-56.23Z"/>
    <path class="cls-1" d="M841.75,0c-5.1,0-9.71,2.07-13.05,5.4-3.33,3.34-5.4,7.95-5.4,13.05v156.68c0,15.54-12.6,28.14-28.14,28.14-3.13,0-6.21-.55-9.11-1.59-2.9-1.05-5.62-2.59-8.03-4.59l-120.42-99.77v-.1l-91.98-73.03C557.12,17.15,534.18,0,516.6,0h-8.87c-30.83,0-55.82,24.99-55.82,55.81v165.9c0,10.19,8.26,18.45,18.45,18.45,5.1,0,9.71-2.07,13.05-5.4,3.33-3.34,5.4-7.95,5.4-13.05V65.03c0-15.54,12.6-28.14,28.14-28.14,3.13,0,6.21.55,9.11,1.59,2.9,1.05,5.62,2.59,8.03,4.59l120.42,99.77v.1l95.07,78.78c8.5,7.05,22.59,18.44,46.76,18.44h8.04c30.83,0,55.82-24.99,55.82-55.81V18.45C860.2,8.26,851.94,0,841.75,0Z"/>
    <g>
      <path class="cls-1" d="M1057.97,26.88c-10.13-5.77-22.22-8.16-38.54-8.16h-47.4v78.48h47.4c16.31,0,28.41-2.39,38.54-8.02,10.27-5.77,15.89-16.45,15.89-31.22s-5.63-25.46-15.89-31.08ZM1037.3,78.35c-6.33,1.69-10.97,1.97-17.86,1.97h-27.71v-44.72h27.71c6.89,0,11.53.28,17.86,1.97,3.23.84,5.91,2.11,8.02,3.66,4.08,2.95,7.45,8.86,7.45,16.74-.56,12.24-6.19,18.14-15.47,20.39Z"/>
      <path class="cls-1" d="M1112.11,72.3h25.74l17.44,24.89h22.78l-19.13-27.71c12.24-4.64,18-15.05,18-24.05,0-5.48-1.83-11.39-6.19-17.02-4.08-5.77-12.38-9.7-22.92-9.7h-55.55v78.48h19.83v-24.89ZM1112.11,35.6h30.66c9.99,0,13.5,4.92,13.5,9.84s-3.52,9.99-13.5,9.99h-30.66v-19.83Z"/>
      <path class="cls-1" d="M1214.63,89.04c0-5.48-4.78-10.27-10.27-10.27s-10.27,4.64-10.27,10.27,4.78,10.27,10.27,10.27,10.27-4.64,10.27-10.27Z"/>
      <polygon class="cls-1" points="997.74 125.68 974.14 125.68 974.14 219.76 1064.68 219.76 1064.68 199.7 997.74 199.7 997.74 125.68"/>
      <path class="cls-1" d="M1162.13,174.91c0,18.72-12.48,26.47-29.51,26.47s-29.17-7.76-29.17-26.47v-49.23h-23.61v49.23c0,15.34,4.89,26.98,14.5,34.9,9.61,7.76,22.43,11.63,38.27,11.63s28.83-3.88,38.44-11.63c9.78-7.92,14.67-19.56,14.67-34.9v-49.23h-23.61v49.23Z"/>
      <path class="cls-1" d="M1225.53,137.82c-12.48,9.11-18.72,20.74-18.72,35.07s6.24,26.13,18.88,35.07c12.65,8.94,29.84,13.49,51.59,13.49,18.38,0,33.55-3.04,45.86-8.94v-20.57c-14.33,6.24-29,9.44-44.34,9.44s-27.48-2.7-35.24-8.26c-7.59-5.56-11.46-12.48-11.46-20.4s3.88-14.67,11.46-20.23c7.76-5.56,19.39-8.43,34.73-8.43s29.68,3.2,44.85,9.61v-20.57c-12.14-6.07-27.65-9.11-46.37-9.11-21.58,0-38.61,4.55-51.26,13.83Z"/>
      <path class="cls-1" d="M1332.09,219.76h26.3l9.11-14.67h54.46l9.1,14.67h26.47l-62.72-95.77-62.72,95.77ZM1380.14,184.86l14.67-23.27,14.5,23.27h-29.17Z"/>
      <path class="cls-1" d="M1490.24,151.81c0-5.73,10.12-8.6,30.35-8.6,16.52,0,30.35,1.52,41.65,4.38l.84-19.22c-12.65-2.87-26.98-4.38-43-4.38-34.9,0-52.44,9.78-52.44,29.17,0,13.99,8.94,22.59,20.91,25.29,6.07,1.18,12.65,2.19,19.56,2.87,20.23,1.18,40.47-.17,40.47,10.62,0,6.91-10.62,10.29-32.04,10.29-16.36,0-32.88-1.69-49.74-5.06l-.84,20.23c16.02,2.7,32.71,4.05,50.25,4.05,36.59,0,54.97-10.12,54.97-30.52,0-45.69-80.93-18.72-80.93-39.12Z"/>
      <polygon class="cls-1" points="1741.46 182.5 1651.42 123.99 1651.42 219.76 1675.2 219.76 1675.2 164.46 1765.23 221.45 1765.23 125.68 1741.46 125.68 1741.46 182.5"/>
      <polygon class="cls-1" points="1792.55 219.76 1888.32 219.76 1888.32 199.53 1816.32 199.53 1816.32 181.82 1875.33 181.82 1875.33 161.59 1816.32 161.59 1816.32 145.74 1888.32 145.74 1888.32 125.68 1792.55 125.68 1792.55 219.76"/>
      <polygon class="cls-1" points="1988.97 185.03 1940.75 123.99 1902.64 219.76 1927.94 219.76 1946.65 168 1988.97 221.45 2031.46 168 2050.18 219.76 2075.47 219.76 2037.36 123.99 1988.97 185.03"/>
      <polygon class="cls-1" points="2091.48 219.76 2187.25 219.76 2187.25 199.53 2115.26 199.53 2115.26 181.82 2174.27 181.82 2174.27 161.59 2115.26 161.59 2115.26 145.74 2187.25 145.74 2187.25 125.68 2091.48 125.68 2091.48 219.76"/>
      <path class="cls-1" d="M2229.23,151.81c0-5.73,10.12-8.6,30.35-8.6,16.52,0,30.35,1.52,41.65,4.38l.84-19.22c-12.65-2.87-26.98-4.38-43-4.38-34.9,0-52.44,9.78-52.44,29.17,0,13.99,8.94,22.59,20.91,25.29,6.07,1.18,12.65,2.19,19.56,2.87,20.23,1.18,40.47-.17,40.47,10.62,0,6.91-10.62,10.29-32.04,10.29-16.36,0-32.88-1.69-49.74-5.06l-.84,20.23c16.02,2.7,32.71,4.05,50.25,4.05,36.59,0,54.97-10.12,54.97-30.52,0-45.69-80.93-18.72-80.93-39.12Z"/>
    </g>
  </g>
</svg>